<svg width="33" height="36" viewBox="0 0 33 36" fill="none" xmlns="http://www.w3.org/2000/svg">
<path fill-rule="evenodd" clip-rule="evenodd" d="M6.5072 0H32.5357L6.5072 26.0285V0ZM9.29597 19.2958L25.803 2.78877H9.29597V19.2958Z" fill="#5F5E5E"/>
<path fill-rule="evenodd" clip-rule="evenodd" d="M6.5072 0H32.5357L6.5072 26.0285V0ZM9.29597 19.2958L25.803 2.78877H9.29597V19.2958Z" fill="url(#paint0_linear)"/>
<path fill-rule="evenodd" clip-rule="evenodd" d="M26.0285 35.3244L0 35.3244L26.0285 9.2959L26.0285 35.3244ZM23.2398 16.0286L6.73269 32.5357L23.2398 32.5357L23.2398 16.0286Z" fill="#5F5E5E"/>
<path fill-rule="evenodd" clip-rule="evenodd" d="M26.0285 35.3244L0 35.3244L26.0285 9.2959L26.0285 35.3244ZM23.2398 16.0286L6.73269 32.5357L23.2398 32.5357L23.2398 16.0286Z" fill="url(#paint1_linear)"/>
<defs>
<linearGradient id="paint0_linear" x1="19.5215" y1="0" x2="19.5215" y2="33.8539" gradientUnits="userSpaceOnUse">
<stop stop-color="#1E1E1E"/>
<stop offset="1" stop-color="#959595" stop-opacity="0"/>
</linearGradient>
<linearGradient id="paint1_linear" x1="13.0143" y1="0.341963" x2="13.0143" y2="35.3244" gradientUnits="userSpaceOnUse">
<stop stop-color="#1E1E1E"/>
<stop offset="1" stop-color="#959595" stop-opacity="0"/>
</linearGradient>
</defs>
</svg>
